<?xml version="1.0" encoding="utf-8"?>
<!-- Generator: Adobe Illustrator 21.0.2, SVG Export Plug-In . SVG Version: 6.00 Build 0)  -->
<svg version="1.1" id="Ebene_1" xmlns="http://www.w3.org/2000/svg" xmlns:xlink="http://www.w3.org/1999/xlink" x="0px" y="0px"
	 viewBox="0 0 100 100" style="enable-background:new 0 0 100 100;" xml:space="preserve">
<style type="text/css">
	.st0{fill:#0A0A0A;}
	.st1{fill:#505050;}
	.st2{fill:#FF5A00;}
</style>
<path class="st0" d="M43.4,34.6c0-3.5,2.8-6.6,6.6-6.6V0C31,0,15.4,15.6,15.4,34.6S31,69.2,50,69.2v-28
	C46.5,40.8,43.4,38.1,43.4,34.6z"/>
<path class="st1" d="M56.6,34.6c0,3.5-2.8,6.6-6.6,6.6v28c19,0,34.6-15.6,34.6-34.6S69,0,50,0v28C53.8,28,56.6,30.8,56.6,34.6z"/>
<path class="st2" d="M50,68.9c-19,0-34.6-15.6-34.6-34.6l0,0v48.4c0,9.7,7.6,17.3,17.3,17.3S50,92.4,50,82.7V68.9L50,68.9z"/>
</svg>
